# Rhino

mtllib 20210627_square_1.mtl
usemtl diffuse_0
v 3.25 296.75 0
v 3.25 3.25 0
v 3.25 296.75 5.9499998092651367
v 3.25 3.25 5.9499998092651367
v 3.25 3.25 0
v 296.75 3.25 0
v 3.25 3.25 5.9499998092651367
v 296.75 3.25 5.9499998092651367
v 296.75 3.25 0
v 296.75 296.75 0
v 296.75 3.25 5.9499998092651367
v 296.75 296.75 5.9499998092651367
v 296.75 296.75 0
v 3.25 296.75 0
v 296.75 296.75 5.9499998092651367
v 3.25 296.75 5.9499998092651367
vt 0.99853515625 0
vt 0.019869761541485786 0
vt 0.99853515625 0.019869761541485786
vt 0.019869761541485786 0.019869761541485786
vt 0 0
vt 0 0.97866541147232056
vt 0.018404917791485786 0
vt 0.018404917791485786 0.97866541147232056
vt 0.99853515625 0.65342015027999878
vt 0.019869761541485786 0.65342015027999878
vt 0.99853515625 0.67328989505767822
vt 0.019869761541485786 0.67328989505767822
vt 0.99853515625 0.32671007513999939
vt 0.019869761541485786 0.32671007513999939
vt 0.99853515625 0.34657984972000122
vt 0.019869761541485786 0.34657984972000122
vn 1 0 0
vn 1 0 0
vn 1 0 0
vn 1 0 0
vn 0 1 0
vn 0 1 0
vn 0 1 0
vn 0 1 0
vn -1 0 0
vn -1 0 0
vn -1 0 0
vn -1 0 0
vn 0 -1 0
vn 0 -1 0
vn 0 -1 0
vn 0 -1 0
f 2/2/2 1/1/1 3/3/3
f 6/6/6 5/5/5 7/7/7
f 10/10/10 9/9/9 11/11/11
f 14/14/14 13/13/13 15/15/15
f 2/2/2 3/3/3 4/4/4
f 6/6/6 7/7/7 8/8/8
f 10/10/10 11/11/11 12/12/12
f 14/14/14 15/15/15 16/16/16
usemtl diffuse_0
v -3.25 303.25 0
v -3.25 -3.25 0
v -3.25 303.25 5.9499998092651367
v -3.25 -3.25 5.9499998092651367
v -3.25 -3.25 0
v 303.25 -3.25 0
v -3.25 -3.25 5.9499998092651367
v 303.25 -3.25 5.9499998092651367
v 303.25 -3.25 0
v 303.25 303.25 0
v 303.25 -3.25 5.9499998092651367
v 303.25 303.25 5.9499998092651367
v 303.25 303.25 0
v -3.25 303.25 0
v 303.25 303.25 5.9499998092651367
v -3.25 303.25 5.9499998092651367
vt 0.99853515625 0
vt 0.019043046981096268 0
vt 0.99853515625 0.019043046981096268
vt 0.019043046981096268 0.019043046981096268
vt 0 0
vt 0 0.97949212789535522
vt 0.017578203231096268 0
vt 0.017578203231096268 0.97949212789535522
vt 0.99853515625 0.65397131443023682
vt 0.019043046981096268 0.65397131443023682
vt 0.99853515625 0.67301434278488159
vt 0.019043046981096268 0.67301434278488159
vt 0.99853515625 0.32698565721511841
vt 0.019043046981096268 0.32698565721511841
vt 0.99853515625 0.34602868556976318
vt 0.019043046981096268 0.34602868556976318
vn 1 0 0
vn 1 0 0
vn 1 0 0
vn 1 0 0
vn 0 1 0
vn 0 1 0
vn 0 1 0
vn 0 1 0
vn -1 0 0
vn -1 0 0
vn -1 0 0
vn -1 0 0
vn 0 -1 0
vn 0 -1 0
vn 0 -1 0
vn 0 -1 0
f 18/18/18 17/17/17 19/19/19
f 22/22/22 21/21/21 23/23/23
f 26/26/26 25/25/25 27/27/27
f 30/30/30 29/29/29 31/31/31
f 18/18/18 19/19/19 20/20/20
f 22/22/22 23/23/23 24/24/24
f 26/26/26 27/27/27 28/28/28
f 30/30/30 31/31/31 32/32/32
usemtl diffuse_0
v 0 300 0
v 0 0 0
v 0 300 5.9499998092651367
v 0 0 5.9499998092651367
v 0 0 0
v 300 0 0
v 0 0 5.9499998092651367
v 300 0 5.9499998092651367
v 300 0 0
v 300 300 0
v 300 0 5.9499998092651367
v 300 300 5.9499998092651367
v 300 300 0
v 0 300 0
v 300 300 5.9499998092651367
v 0 300 5.9499998092651367
vt 0.99853515625 0
vt 0.019447622820734978 0
vt 0.99853515625 0.019447622820734978
vt 0.019447622820734978 0.019447622820734978
vt 0 0
vt 0 0.97908753156661987
vt 0.017982779070734978 0
vt 0.017982779070734978 0.97908753156661987
vt 0.99853515625 0.65370160341262817
vt 0.019447622820734978 0.65370160341262817
vt 0.99853515625 0.6731492280960083
vt 0.019447622820734978 0.6731492280960083
vt 0.99853515625 0.32685080170631409
vt 0.019447622820734978 0.32685080170631409
vt 0.99853515625 0.34629842638969421
vt 0.019447622820734978 0.34629842638969421
vn 1 0 0
vn 1 0 0
vn 1 0 0
vn 1 0 0
vn 0 1 0
vn 0 1 0
vn 0 1 0
vn 0 1 0
vn -1 0 0
vn -1 0 0
vn -1 0 0
vn -1 0 0
vn 0 -1 0
vn 0 -1 0
vn 0 -1 0
vn 0 -1 0
f 34/34/34 33/33/33 35/35/35
f 38/38/38 37/37/37 39/39/39
f 42/42/42 41/41/41 43/43/43
f 46/46/46 45/45/45 47/47/47
f 34/34/34 35/35/35 36/36/36
f 38/38/38 39/39/39 40/40/40
f 42/42/42 43/43/43 44/44/44
f 46/46/46 47/47/47 48/48/48
