# Rhino

mtllib 3D_for_4D.mtl
usemtl diffuse_0
v 0 300 0
v 0 0 0
v 0 300 1.9500000476837158
v 0 0 1.9500000476837158
v 0 0 0
v 300 0 0
v 0 0 1.9500000476837158
v 300 0 1.9500000476837158
v 300 0 0
v 300 300 0
v 300 0 1.9500000476837158
v 300 300 1.9500000476837158
v 300 300 0
v 0 300 0
v 300 300 1.9500000476837158
v 0 300 1.9500000476837158
vt 0.99853515625 0
vt 0.0064580226317048073 0
vt 0.99853515625 0.0064580226317048073
vt 0.0064580226317048073 0.0064580226317048073
vt 0 0
vt 0 0.99207711219787598
vt 0.0064580226317048073 0
vt 0.0064580226317048073 0.99207711219787598
vt 0.99853515625 0.66236132383346558
vt 0.0064580226317048073 0.66236132383346558
vt 0.99853515625 0.6688193678855896
vt 0.0064580226317048073 0.6688193678855896
vt 0.99853515625 0.33118066191673279
vt 0.0064580226317048073 0.33118066191673279
vt 0.99853515625 0.33763867616653442
vt 0.0064580226317048073 0.33763867616653442
vn 1 0 0
vn 1 0 0
vn 1 0 0
vn 1 0 0
vn 0 1 0
vn 0 1 0
vn 0 1 0
vn 0 1 0
vn -1 0 0
vn -1 0 0
vn -1 0 0
vn -1 0 0
vn 0 -1 0
vn 0 -1 0
vn 0 -1 0
vn 0 -1 0
f 2/2/2 1/1/1 3/3/3
f 6/6/6 5/5/5 7/7/7
f 10/10/10 9/9/9 11/11/11
f 14/14/14 13/13/13 15/15/15
f 2/2/2 3/3/3 4/4/4
f 6/6/6 7/7/7 8/8/8
f 10/10/10 11/11/11 12/12/12
f 14/14/14 15/15/15 16/16/16
