# Rhino

mtllib 3D_for_4D.mtl
usemtl diffuse_0
v -9.75 309.75 0
v -9.75 -9.75 0
v -9.75 309.75 1.9500000476837158
v -9.75 -9.75 1.9500000476837158
v -9.75 -9.75 0
v 309.75 -9.75 0
v -9.75 -9.75 1.9500000476837158
v 309.75 -9.75 1.9500000476837158
v 309.75 -9.75 0
v 309.75 309.75 0
v 309.75 -9.75 1.9500000476837158
v 309.75 309.75 1.9500000476837158
v 309.75 309.75 0
v -9.75 309.75 0
v 309.75 309.75 1.9500000476837158
v -9.75 309.75 1.9500000476837158
vt 0.99853515625 0
vt 0.0060662622563540936 0
vt 0.99853515625 0.0060662622563540936
vt 0.0060662622563540936 0.0060662622563540936
vt 0 0
vt 0 0.99246889352798462
vt 0.0060662622563540936 0
vt 0.0060662622563540936 0.99246889352798462
vt 0.99853515625 0.66262251138687134
vt 0.0060662622563540936 0.66262251138687134
vt 0.99853515625 0.66868877410888672
vt 0.0060662622563540936 0.66868877410888672
vt 0.99853515625 0.33131125569343567
vt 0.0060662622563540936 0.33131125569343567
vt 0.99853515625 0.33737751841545105
vt 0.0060662622563540936 0.33737751841545105
vn 1 0 0
vn 1 0 0
vn 1 0 0
vn 1 0 0
vn 0 1 0
vn 0 1 0
vn 0 1 0
vn 0 1 0
vn -1 0 0
vn -1 0 0
vn -1 0 0
vn -1 0 0
vn 0 -1 0
vn 0 -1 0
vn 0 -1 0
vn 0 -1 0
f 2/2/2 1/1/1 3/3/3
f 6/6/6 5/5/5 7/7/7
f 10/10/10 9/9/9 11/11/11
f 14/14/14 13/13/13 15/15/15
f 2/2/2 3/3/3 4/4/4
f 6/6/6 7/7/7 8/8/8
f 10/10/10 11/11/11 12/12/12
f 14/14/14 15/15/15 16/16/16
usemtl diffuse_0
v -6.5 306.5 0
v -6.5 -6.5 0
v -6.5 306.5 1.9500000476837158
v -6.5 -6.5 1.9500000476837158
v -6.5 -6.5 0
v 306.5 -6.5 0
v -6.5 -6.5 1.9500000476837158
v 306.5 -6.5 1.9500000476837158
v 306.5 -6.5 0
v 306.5 306.5 0
v 306.5 -6.5 1.9500000476837158
v 306.5 306.5 1.9500000476837158
v 306.5 306.5 0
v -6.5 306.5 0
v 306.5 306.5 1.9500000476837158
v -6.5 306.5 1.9500000476837158
vt 0.99853515625 0
vt 0.0061914590187370777 0
vt 0.99853515625 0.0061914590187370777
vt 0.0061914590187370777 0.0061914590187370777
vt 0 0
vt 0 0.9923437237739563
vt 0.0061914590187370777 0
vt 0.0061914590187370777 0.9923437237739563
vt 0.99853515625 0.66253900527954102
vt 0.0061914590187370777 0.66253900527954102
vt 0.99853515625 0.66873049736022949
vt 0.0061914590187370777 0.66873049736022949
vt 0.99853515625 0.33126950263977051
vt 0.0061914590187370777 0.33126950263977051
vt 0.99853515625 0.3374609649181366
vt 0.0061914590187370777 0.3374609649181366
vn 1 0 0
vn 1 0 0
vn 1 0 0
vn 1 0 0
vn 0 1 0
vn 0 1 0
vn 0 1 0
vn 0 1 0
vn -1 0 0
vn -1 0 0
vn -1 0 0
vn -1 0 0
vn 0 -1 0
vn 0 -1 0
vn 0 -1 0
vn 0 -1 0
f 18/18/18 17/17/17 19/19/19
f 22/22/22 21/21/21 23/23/23
f 26/26/26 25/25/25 27/27/27
f 30/30/30 29/29/29 31/31/31
f 18/18/18 19/19/19 20/20/20
f 22/22/22 23/23/23 24/24/24
f 26/26/26 27/27/27 28/28/28
f 30/30/30 31/31/31 32/32/32
usemtl diffuse_0
v -3.25 303.25 0
v -3.25 -3.25 0
v -3.25 303.25 1.9500000476837158
v -3.25 -3.25 1.9500000476837158
v -3.25 -3.25 0
v 303.25 -3.25 0
v -3.25 -3.25 1.9500000476837158
v 303.25 -3.25 1.9500000476837158
v 303.25 -3.25 0
v 303.25 303.25 0
v 303.25 -3.25 1.9500000476837158
v 303.25 303.25 1.9500000476837158
v 303.25 303.25 0
v -3.25 303.25 0
v 303.25 303.25 1.9500000476837158
v -3.25 303.25 1.9500000476837158
vt 0.99853515625 0
vt 0.0063219321891665459 0
vt 0.99853515625 0.0063219321891665459
vt 0.0063219321891665459 0.0063219321891665459
vt 0 0
vt 0 0.99221324920654297
vt 0.0063219321891665459 0
vt 0.0063219321891665459 0.99221324920654297
vt 0.99853515625 0.66245204210281372
vt 0.0063219321891665459 0.66245204210281372
vt 0.99853515625 0.66877394914627075
vt 0.0063219321891665459 0.66877394914627075
vt 0.99853515625 0.33122602105140686
vt 0.0063219321891665459 0.33122602105140686
vt 0.99853515625 0.33754795789718628
vt 0.0063219321891665459 0.33754795789718628
vn 1 0 0
vn 1 0 0
vn 1 0 0
vn 1 0 0
vn 0 1 0
vn 0 1 0
vn 0 1 0
vn 0 1 0
vn -1 0 0
vn -1 0 0
vn -1 0 0
vn -1 0 0
vn 0 -1 0
vn 0 -1 0
vn 0 -1 0
vn 0 -1 0
f 34/34/34 33/33/33 35/35/35
f 38/38/38 37/37/37 39/39/39
f 42/42/42 41/41/41 43/43/43
f 46/46/46 45/45/45 47/47/47
f 34/34/34 35/35/35 36/36/36
f 38/38/38 39/39/39 40/40/40
f 42/42/42 43/43/43 44/44/44
f 46/46/46 47/47/47 48/48/48
usemtl diffuse_0
v 0 300 0
v 0 0 0
v 0 300 1.9500000476837158
v 0 0 1.9500000476837158
v 0 0 0
v 300 0 0
v 0 0 1.9500000476837158
v 300 0 1.9500000476837158
v 300 0 0
v 300 300 0
v 300 0 1.9500000476837158
v 300 300 1.9500000476837158
v 300 300 0
v 0 300 0
v 300 300 1.9500000476837158
v 0 300 1.9500000476837158
vt 0.99853515625 0
vt 0.0064580226317048073 0
vt 0.99853515625 0.0064580226317048073
vt 0.0064580226317048073 0.0064580226317048073
vt 0 0
vt 0 0.99207711219787598
vt 0.0064580226317048073 0
vt 0.0064580226317048073 0.99207711219787598
vt 0.99853515625 0.66236132383346558
vt 0.0064580226317048073 0.66236132383346558
vt 0.99853515625 0.6688193678855896
vt 0.0064580226317048073 0.6688193678855896
vt 0.99853515625 0.33118066191673279
vt 0.0064580226317048073 0.33118066191673279
vt 0.99853515625 0.33763867616653442
vt 0.0064580226317048073 0.33763867616653442
vn 1 0 0
vn 1 0 0
vn 1 0 0
vn 1 0 0
vn 0 1 0
vn 0 1 0
vn 0 1 0
vn 0 1 0
vn -1 0 0
vn -1 0 0
vn -1 0 0
vn -1 0 0
vn 0 -1 0
vn 0 -1 0
vn 0 -1 0
vn 0 -1 0
f 50/50/50 49/49/49 51/51/51
f 54/54/54 53/53/53 55/55/55
f 58/58/58 57/57/57 59/59/59
f 62/62/62 61/61/61 63/63/63
f 50/50/50 51/51/51 52/52/52
f 54/54/54 55/55/55 56/56/56
f 58/58/58 59/59/59 60/60/60
f 62/62/62 63/63/63 64/64/64
usemtl diffuse_0
v -9.75 309.75 0
v -9.75 -9.75 0
v -9.75 309.75 1.9500000476837158
v -9.75 -9.75 1.9500000476837158
v -9.75 -9.75 0
v 309.75 -9.75 0
v -9.75 -9.75 1.9500000476837158
v 309.75 -9.75 1.9500000476837158
v 309.75 -9.75 0
v 309.75 309.75 0
v 309.75 -9.75 1.9500000476837158
v 309.75 309.75 1.9500000476837158
v 309.75 309.75 0
v -9.75 309.75 0
v 309.75 309.75 1.9500000476837158
v -9.75 309.75 1.9500000476837158
vt 0.99853515625 0
vt 0.0060662622563540936 0
vt 0.99853515625 0.0060662622563540936
vt 0.0060662622563540936 0.0060662622563540936
vt 0 0
vt 0 0.99246889352798462
vt 0.0060662622563540936 0
vt 0.0060662622563540936 0.99246889352798462
vt 0.99853515625 0.66262251138687134
vt 0.0060662622563540936 0.66262251138687134
vt 0.99853515625 0.66868877410888672
vt 0.0060662622563540936 0.66868877410888672
vt 0.99853515625 0.33131125569343567
vt 0.0060662622563540936 0.33131125569343567
vt 0.99853515625 0.33737751841545105
vt 0.0060662622563540936 0.33737751841545105
vn 1 0 0
vn 1 0 0
vn 1 0 0
vn 1 0 0
vn 0 1 0
vn 0 1 0
vn 0 1 0
vn 0 1 0
vn -1 0 0
vn -1 0 0
vn -1 0 0
vn -1 0 0
vn 0 -1 0
vn 0 -1 0
vn 0 -1 0
vn 0 -1 0
f 66/66/66 65/65/65 67/67/67
f 70/70/70 69/69/69 71/71/71
f 74/74/74 73/73/73 75/75/75
f 78/78/78 77/77/77 79/79/79
f 66/66/66 67/67/67 68/68/68
f 70/70/70 71/71/71 72/72/72
f 74/74/74 75/75/75 76/76/76
f 78/78/78 79/79/79 80/80/80
usemtl diffuse_0
v -6.5 306.5 0
v -6.5 -6.5 0
v -6.5 306.5 1.9500000476837158
v -6.5 -6.5 1.9500000476837158
v -6.5 -6.5 0
v 306.5 -6.5 0
v -6.5 -6.5 1.9500000476837158
v 306.5 -6.5 1.9500000476837158
v 306.5 -6.5 0
v 306.5 306.5 0
v 306.5 -6.5 1.9500000476837158
v 306.5 306.5 1.9500000476837158
v 306.5 306.5 0
v -6.5 306.5 0
v 306.5 306.5 1.9500000476837158
v -6.5 306.5 1.9500000476837158
vt 0.99853515625 0
vt 0.0061914590187370777 0
vt 0.99853515625 0.0061914590187370777
vt 0.0061914590187370777 0.0061914590187370777
vt 0 0
vt 0 0.9923437237739563
vt 0.0061914590187370777 0
vt 0.0061914590187370777 0.9923437237739563
vt 0.99853515625 0.66253900527954102
vt 0.0061914590187370777 0.66253900527954102
vt 0.99853515625 0.66873049736022949
vt 0.0061914590187370777 0.66873049736022949
vt 0.99853515625 0.33126950263977051
vt 0.0061914590187370777 0.33126950263977051
vt 0.99853515625 0.3374609649181366
vt 0.0061914590187370777 0.3374609649181366
vn 1 0 0
vn 1 0 0
vn 1 0 0
vn 1 0 0
vn 0 1 0
vn 0 1 0
vn 0 1 0
vn 0 1 0
vn -1 0 0
vn -1 0 0
vn -1 0 0
vn -1 0 0
vn 0 -1 0
vn 0 -1 0
vn 0 -1 0
vn 0 -1 0
f 82/82/82 81/81/81 83/83/83
f 86/86/86 85/85/85 87/87/87
f 90/90/90 89/89/89 91/91/91
f 94/94/94 93/93/93 95/95/95
f 82/82/82 83/83/83 84/84/84
f 86/86/86 87/87/87 88/88/88
f 90/90/90 91/91/91 92/92/92
f 94/94/94 95/95/95 96/96/96
usemtl diffuse_0
v -3.25 303.25 0
v -3.25 -3.25 0
v -3.25 303.25 1.9500000476837158
v -3.25 -3.25 1.9500000476837158
v -3.25 -3.25 0
v 303.25 -3.25 0
v -3.25 -3.25 1.9500000476837158
v 303.25 -3.25 1.9500000476837158
v 303.25 -3.25 0
v 303.25 303.25 0
v 303.25 -3.25 1.9500000476837158
v 303.25 303.25 1.9500000476837158
v 303.25 303.25 0
v -3.25 303.25 0
v 303.25 303.25 1.9500000476837158
v -3.25 303.25 1.9500000476837158
vt 0.99853515625 0
vt 0.0063219321891665459 0
vt 0.99853515625 0.0063219321891665459
vt 0.0063219321891665459 0.0063219321891665459
vt 0 0
vt 0 0.99221324920654297
vt 0.0063219321891665459 0
vt 0.0063219321891665459 0.99221324920654297
vt 0.99853515625 0.66245204210281372
vt 0.0063219321891665459 0.66245204210281372
vt 0.99853515625 0.66877394914627075
vt 0.0063219321891665459 0.66877394914627075
vt 0.99853515625 0.33122602105140686
vt 0.0063219321891665459 0.33122602105140686
vt 0.99853515625 0.33754795789718628
vt 0.0063219321891665459 0.33754795789718628
vn 1 0 0
vn 1 0 0
vn 1 0 0
vn 1 0 0
vn 0 1 0
vn 0 1 0
vn 0 1 0
vn 0 1 0
vn -1 0 0
vn -1 0 0
vn -1 0 0
vn -1 0 0
vn 0 -1 0
vn 0 -1 0
vn 0 -1 0
vn 0 -1 0
f 98/98/98 97/97/97 99/99/99
f 102/102/102 101/101/101 103/103/103
f 106/106/106 105/105/105 107/107/107
f 110/110/110 109/109/109 111/111/111
f 98/98/98 99/99/99 100/100/100
f 102/102/102 103/103/103 104/104/104
f 106/106/106 107/107/107 108/108/108
f 110/110/110 111/111/111 112/112/112
usemtl diffuse_0
v 0 300 0
v 0 0 0
v 0 300 1.9500000476837158
v 0 0 1.9500000476837158
v 0 0 0
v 300 0 0
v 0 0 1.9500000476837158
v 300 0 1.9500000476837158
v 300 0 0
v 300 300 0
v 300 0 1.9500000476837158
v 300 300 1.9500000476837158
v 300 300 0
v 0 300 0
v 300 300 1.9500000476837158
v 0 300 1.9500000476837158
vt 0.99853515625 0
vt 0.0064580226317048073 0
vt 0.99853515625 0.0064580226317048073
vt 0.0064580226317048073 0.0064580226317048073
vt 0 0
vt 0 0.99207711219787598
vt 0.0064580226317048073 0
vt 0.0064580226317048073 0.99207711219787598
vt 0.99853515625 0.66236132383346558
vt 0.0064580226317048073 0.66236132383346558
vt 0.99853515625 0.6688193678855896
vt 0.0064580226317048073 0.6688193678855896
vt 0.99853515625 0.33118066191673279
vt 0.0064580226317048073 0.33118066191673279
vt 0.99853515625 0.33763867616653442
vt 0.0064580226317048073 0.33763867616653442
vn 1 0 0
vn 1 0 0
vn 1 0 0
vn 1 0 0
vn 0 1 0
vn 0 1 0
vn 0 1 0
vn 0 1 0
vn -1 0 0
vn -1 0 0
vn -1 0 0
vn -1 0 0
vn 0 -1 0
vn 0 -1 0
vn 0 -1 0
vn 0 -1 0
f 114/114/114 113/113/113 115/115/115
f 118/118/118 117/117/117 119/119/119
f 122/122/122 121/121/121 123/123/123
f 126/126/126 125/125/125 127/127/127
f 114/114/114 115/115/115 116/116/116
f 118/118/118 119/119/119 120/120/120
f 122/122/122 123/123/123 124/124/124
f 126/126/126 127/127/127 128/128/128
