# Rhino

mtllib 20210627_square_3.mtl
usemtl diffuse_0
v 293.5 293.5 0
v 202.16667175292969 293.5 0
v 293.5 293.5 1.4500000476837158
v 202.16667175292969 293.5 1.4500000476837158
v 202.16667175292969 293.5 0
v 202.16667175292969 202.16667175292969 0
v 202.16667175292969 293.5 1.4500000476837158
v 202.16667175292969 202.16667175292969 1.4500000476837158
v 202.16667175292969 202.16667175292969 0
v 293.5 202.16667175292969 0
v 202.16667175292969 202.16667175292969 1.4500000476837158
v 293.5 202.16667175292969 1.4500000476837158
v 293.5 202.16667175292969 0
v 293.5 293.5 0
v 293.5 202.16667175292969 1.4500000476837158
v 293.5 293.5 1.4500000476837158
vt 0.99853515625 0
vt 0.015627807006239891 0
vt 0.99853515625 0.015627807006239891
vt 0.015627807006239891 0.015627807006239891
vt 0 0
vt 0 0.98290735483169556
vt 0.014162963256239891 0
vt 0.014162963256239891 0.98290735483169556
vt 0.99853515625 0.65624815225601196
vt 0.015627807006239891 0.65624815225601196
vt 0.99853515625 0.67187595367431641
vt 0.015627807006239891 0.67187595367431641
vt 0.99853515625 0.32812407612800598
vt 0.015627807006239891 0.32812407612800598
vt 0.99853515625 0.34375187754631042
vt 0.015627807006239891 0.34375187754631042
vn 0 -1 0
vn 0 -1 0
vn 0 -1 0
vn 0 -1 0
vn 1 0 0
vn 1 0 0
vn 1 0 0
vn 1 0 0
vn 0 1 0
vn 0 1 0
vn 0 1 0
vn 0 1 0
vn -1 0 0
vn -1 0 0
vn -1 0 0
vn -1 0 0
f 2/2/2 1/1/1 3/3/3
f 6/6/6 5/5/5 7/7/7
f 10/10/10 9/9/9 11/11/11
f 14/14/14 13/13/13 15/15/15
f 2/2/2 3/3/3 4/4/4
f 6/6/6 7/7/7 8/8/8
f 10/10/10 11/11/11 12/12/12
f 14/14/14 15/15/15 16/16/16
usemtl diffuse_0
v 293.5 195.66667175292969 0
v 202.16667175292969 195.66667175292969 0
v 293.5 195.66667175292969 1.4500000476837158
v 202.16667175292969 195.66667175292969 1.4500000476837158
v 202.16667175292969 195.66667175292969 0
v 202.16667175292969 104.33333587646484 0
v 202.16667175292969 195.66667175292969 1.4500000476837158
v 202.16667175292969 104.33333587646484 1.4500000476837158
v 202.16667175292969 104.33333587646484 0
v 293.5 104.33333587646484 0
v 202.16667175292969 104.33333587646484 1.4500000476837158
v 293.5 104.33333587646484 1.4500000476837158
v 293.5 104.33333587646484 0
v 293.5 195.66667175292969 0
v 293.5 104.33333587646484 1.4500000476837158
v 293.5 195.66667175292969 1.4500000476837158
vt 0.99853515625 0
vt 0.015627807006239891 0
vt 0.99853515625 0.015627807006239891
vt 0.015627807006239891 0.015627807006239891
vt 0 0
vt 0 0.98290735483169556
vt 0.014162963256239891 0
vt 0.014162963256239891 0.98290735483169556
vt 0.99853515625 0.65624815225601196
vt 0.015627807006239891 0.65624815225601196
vt 0.99853515625 0.67187595367431641
vt 0.015627807006239891 0.67187595367431641
vt 0.99853515625 0.32812407612800598
vt 0.015627807006239891 0.32812407612800598
vt 0.99853515625 0.34375187754631042
vt 0.015627807006239891 0.34375187754631042
vn 0 -1 0
vn 0 -1 0
vn 0 -1 0
vn 0 -1 0
vn 1 0 0
vn 1 0 0
vn 1 0 0
vn 1 0 0
vn 0 1 0
vn 0 1 0
vn 0 1 0
vn 0 1 0
vn -1 0 0
vn -1 0 0
vn -1 0 0
vn -1 0 0
f 18/18/18 17/17/17 19/19/19
f 22/22/22 21/21/21 23/23/23
f 26/26/26 25/25/25 27/27/27
f 30/30/30 29/29/29 31/31/31
f 18/18/18 19/19/19 20/20/20
f 22/22/22 23/23/23 24/24/24
f 26/26/26 27/27/27 28/28/28
f 30/30/30 31/31/31 32/32/32
usemtl diffuse_0
v 293.5 97.833335876464844 0
v 202.16667175292969 97.833335876464844 0
v 293.5 97.833335876464844 1.4500000476837158
v 202.16667175292969 97.833335876464844 1.4500000476837158
v 202.16667175292969 97.833335876464844 0
v 202.16667175292969 6.5 0
v 202.16667175292969 97.833335876464844 1.4500000476837158
v 202.16667175292969 6.5 1.4500000476837158
v 202.16667175292969 6.5 0
v 293.5 6.5 0
v 202.16667175292969 6.5 1.4500000476837158
v 293.5 6.5 1.4500000476837158
v 293.5 6.5 0
v 293.5 97.833335876464844 0
v 293.5 6.5 1.4500000476837158
v 293.5 97.833335876464844 1.4500000476837158
vt 0.99853515625 0
vt 0.015627807006239891 0
vt 0.99853515625 0.015627807006239891
vt 0.015627807006239891 0.015627807006239891
vt 0 0
vt 0 0.98290735483169556
vt 0.014162963256239891 0
vt 0.014162963256239891 0.98290735483169556
vt 0.99853515625 0.65624815225601196
vt 0.015627807006239891 0.65624815225601196
vt 0.99853515625 0.67187595367431641
vt 0.015627807006239891 0.67187595367431641
vt 0.99853515625 0.32812407612800598
vt 0.015627807006239891 0.32812407612800598
vt 0.99853515625 0.34375187754631042
vt 0.015627807006239891 0.34375187754631042
vn 0 -1 0
vn 0 -1 0
vn 0 -1 0
vn 0 -1 0
vn 1 0 0
vn 1 0 0
vn 1 0 0
vn 1 0 0
vn 0 1 0
vn 0 1 0
vn 0 1 0
vn 0 1 0
vn -1 0 0
vn -1 0 0
vn -1 0 0
vn -1 0 0
f 34/34/34 33/33/33 35/35/35
f 38/38/38 37/37/37 39/39/39
f 42/42/42 41/41/41 43/43/43
f 46/46/46 45/45/45 47/47/47
f 34/34/34 35/35/35 36/36/36
f 38/38/38 39/39/39 40/40/40
f 42/42/42 43/43/43 44/44/44
f 46/46/46 47/47/47 48/48/48
usemtl diffuse_0
v 195.66667175292969 293.5 0
v 104.33333587646484 293.5 0
v 195.66667175292969 293.5 1.4500000476837158
v 104.33333587646484 293.5 1.4500000476837158
v 104.33333587646484 293.5 0
v 104.33333587646484 202.16667175292969 0
v 104.33333587646484 293.5 1.4500000476837158
v 104.33333587646484 202.16667175292969 1.4500000476837158
v 104.33333587646484 202.16667175292969 0
v 195.66667175292969 202.16667175292969 0
v 104.33333587646484 202.16667175292969 1.4500000476837158
v 195.66667175292969 202.16667175292969 1.4500000476837158
v 195.66667175292969 202.16667175292969 0
v 195.66667175292969 293.5 0
v 195.66667175292969 202.16667175292969 1.4500000476837158
v 195.66667175292969 293.5 1.4500000476837158
vt 0 0
vt 0 0.98290735483169556
vt 0.014162963256239891 0
vt 0.014162963256239891 0.98290735483169556
vt 0.99853515625 0.32812407612800598
vt 0.015627807006239891 0.32812407612800598
vt 0.99853515625 0.34375187754631042
vt 0.015627807006239891 0.34375187754631042
vt 0.99853515625 0.65624815225601196
vt 0.015627807006239891 0.65624815225601196
vt 0.99853515625 0.67187595367431641
vt 0.015627807006239891 0.67187595367431641
vt 0.99853515625 0
vt 0.015627807006239891 0
vt 0.99853515625 0.015627807006239891
vt 0.015627807006239891 0.015627807006239891
vn 0 -1 0
vn 0 -1 0
vn 0 -1 0
vn 0 -1 0
vn 1 0 0
vn 1 0 0
vn 1 0 0
vn 1 0 0
vn 0 1 0
vn 0 1 0
vn 0 1 0
vn 0 1 0
vn -1 0 0
vn -1 0 0
vn -1 0 0
vn -1 0 0
f 50/50/50 49/49/49 51/51/51
f 54/54/54 53/53/53 55/55/55
f 58/58/58 57/57/57 59/59/59
f 62/62/62 61/61/61 63/63/63
f 50/50/50 51/51/51 52/52/52
f 54/54/54 55/55/55 56/56/56
f 58/58/58 59/59/59 60/60/60
f 62/62/62 63/63/63 64/64/64
usemtl diffuse_0
v 195.66667175292969 195.66667175292969 0
v 104.33333587646484 195.66667175292969 0
v 195.66667175292969 195.66667175292969 1.4500000476837158
v 104.33333587646484 195.66667175292969 1.4500000476837158
v 104.33333587646484 195.66667175292969 0
v 104.33333587646484 104.33333587646484 0
v 104.33333587646484 195.66667175292969 1.4500000476837158
v 104.33333587646484 104.33333587646484 1.4500000476837158
v 104.33333587646484 104.33333587646484 0
v 195.66667175292969 104.33333587646484 0
v 104.33333587646484 104.33333587646484 1.4500000476837158
v 195.66667175292969 104.33333587646484 1.4500000476837158
v 195.66667175292969 104.33333587646484 0
v 195.66667175292969 195.66667175292969 0
v 195.66667175292969 104.33333587646484 1.4500000476837158
v 195.66667175292969 195.66667175292969 1.4500000476837158
vt 0 0
vt 0 0.98290735483169556
vt 0.014162963256239891 0
vt 0.014162963256239891 0.98290735483169556
vt 0.99853515625 0.32812407612800598
vt 0.015627807006239891 0.32812407612800598
vt 0.99853515625 0.34375187754631042
vt 0.015627807006239891 0.34375187754631042
vt 0.99853515625 0.65624815225601196
vt 0.015627807006239891 0.65624815225601196
vt 0.99853515625 0.67187595367431641
vt 0.015627807006239891 0.67187595367431641
vt 0.99853515625 0
vt 0.015627807006239891 0
vt 0.99853515625 0.015627807006239891
vt 0.015627807006239891 0.015627807006239891
vn 0 -1 0
vn 0 -1 0
vn 0 -1 0
vn 0 -1 0
vn 1 0 0
vn 1 0 0
vn 1 0 0
vn 1 0 0
vn 0 1 0
vn 0 1 0
vn 0 1 0
vn 0 1 0
vn -1 0 0
vn -1 0 0
vn -1 0 0
vn -1 0 0
f 66/66/66 65/65/65 67/67/67
f 70/70/70 69/69/69 71/71/71
f 74/74/74 73/73/73 75/75/75
f 78/78/78 77/77/77 79/79/79
f 66/66/66 67/67/67 68/68/68
f 70/70/70 71/71/71 72/72/72
f 74/74/74 75/75/75 76/76/76
f 78/78/78 79/79/79 80/80/80
usemtl diffuse_0
v 195.66667175292969 97.833335876464844 0
v 104.33333587646484 97.833335876464844 0
v 195.66667175292969 97.833335876464844 1.4500000476837158
v 104.33333587646484 97.833335876464844 1.4500000476837158
v 104.33333587646484 97.833335876464844 0
v 104.33333587646484 6.5 0
v 104.33333587646484 97.833335876464844 1.4500000476837158
v 104.33333587646484 6.5 1.4500000476837158
v 104.33333587646484 6.5 0
v 195.66667175292969 6.5 0
v 104.33333587646484 6.5 1.4500000476837158
v 195.66667175292969 6.5 1.4500000476837158
v 195.66667175292969 6.5 0
v 195.66667175292969 97.833335876464844 0
v 195.66667175292969 6.5 1.4500000476837158
v 195.66667175292969 97.833335876464844 1.4500000476837158
vt 0 0
vt 0 0.98290735483169556
vt 0.014162963256239891 0
vt 0.014162963256239891 0.98290735483169556
vt 0.99853515625 0.32812407612800598
vt 0.015627807006239891 0.32812407612800598
vt 0.99853515625 0.34375187754631042
vt 0.015627807006239891 0.34375187754631042
vt 0.99853515625 0.65624815225601196
vt 0.015627807006239891 0.65624815225601196
vt 0.99853515625 0.67187595367431641
vt 0.015627807006239891 0.67187595367431641
vt 0.99853515625 0
vt 0.015627807006239891 0
vt 0.99853515625 0.015627807006239891
vt 0.015627807006239891 0.015627807006239891
vn 0 -1 0
vn 0 -1 0
vn 0 -1 0
vn 0 -1 0
vn 1 0 0
vn 1 0 0
vn 1 0 0
vn 1 0 0
vn 0 1 0
vn 0 1 0
vn 0 1 0
vn 0 1 0
vn -1 0 0
vn -1 0 0
vn -1 0 0
vn -1 0 0
f 82/82/82 81/81/81 83/83/83
f 86/86/86 85/85/85 87/87/87
f 90/90/90 89/89/89 91/91/91
f 94/94/94 93/93/93 95/95/95
f 82/82/82 83/83/83 84/84/84
f 86/86/86 87/87/87 88/88/88
f 90/90/90 91/91/91 92/92/92
f 94/94/94 95/95/95 96/96/96
usemtl diffuse_0
v 97.833335876464844 293.5 0
v 6.5 293.5 0
v 97.833335876464844 293.5 1.4500000476837158
v 6.5 293.5 1.4500000476837158
v 6.5 293.5 0
v 6.5 202.16667175292969 0
v 6.5 293.5 1.4500000476837158
v 6.5 202.16667175292969 1.4500000476837158
v 6.5 202.16667175292969 0
v 97.833335876464844 202.16667175292969 0
v 6.5 202.16667175292969 1.4500000476837158
v 97.833335876464844 202.16667175292969 1.4500000476837158
v 97.833335876464844 202.16667175292969 0
v 97.833335876464844 293.5 0
v 97.833335876464844 202.16667175292969 1.4500000476837158
v 97.833335876464844 293.5 1.4500000476837158
vt 0 0
vt 0 0.98290735483169556
vt 0.014162963256239891 0
vt 0.014162963256239891 0.98290735483169556
vt 0.99853515625 0.65624815225601196
vt 0.015627807006239891 0.65624815225601196
vt 0.99853515625 0.67187595367431641
vt 0.015627807006239891 0.67187595367431641
vt 0.99853515625 0.32812407612800598
vt 0.015627807006239891 0.32812407612800598
vt 0.99853515625 0.34375187754631042
vt 0.015627807006239891 0.34375187754631042
vt 0.99853515625 0
vt 0.015627807006239891 0
vt 0.99853515625 0.015627807006239891
vt 0.015627807006239891 0.015627807006239891
vn 0 -1 0
vn 0 -1 0
vn 0 -1 0
vn 0 -1 0
vn 1 0 0
vn 1 0 0
vn 1 0 0
vn 1 0 0
vn 0 1 0
vn 0 1 0
vn 0 1 0
vn 0 1 0
vn -1 0 0
vn -1 0 0
vn -1 0 0
vn -1 0 0
f 98/98/98 97/97/97 99/99/99
f 102/102/102 101/101/101 103/103/103
f 106/106/106 105/105/105 107/107/107
f 110/110/110 109/109/109 111/111/111
f 98/98/98 99/99/99 100/100/100
f 102/102/102 103/103/103 104/104/104
f 106/106/106 107/107/107 108/108/108
f 110/110/110 111/111/111 112/112/112
usemtl diffuse_0
v 97.833335876464844 195.66667175292969 0
v 6.5 195.66667175292969 0
v 97.833335876464844 195.66667175292969 1.4500000476837158
v 6.5 195.66667175292969 1.4500000476837158
v 6.5 195.66667175292969 0
v 6.5 104.33333587646484 0
v 6.5 195.66667175292969 1.4500000476837158
v 6.5 104.33333587646484 1.4500000476837158
v 6.5 104.33333587646484 0
v 97.833335876464844 104.33333587646484 0
v 6.5 104.33333587646484 1.4500000476837158
v 97.833335876464844 104.33333587646484 1.4500000476837158
v 97.833335876464844 104.33333587646484 0
v 97.833335876464844 195.66667175292969 0
v 97.833335876464844 104.33333587646484 1.4500000476837158
v 97.833335876464844 195.66667175292969 1.4500000476837158
vt 0 0
vt 0 0.98290735483169556
vt 0.014162963256239891 0
vt 0.014162963256239891 0.98290735483169556
vt 0.99853515625 0.65624815225601196
vt 0.015627807006239891 0.65624815225601196
vt 0.99853515625 0.67187595367431641
vt 0.015627807006239891 0.67187595367431641
vt 0.99853515625 0.32812407612800598
vt 0.015627807006239891 0.32812407612800598
vt 0.99853515625 0.34375187754631042
vt 0.015627807006239891 0.34375187754631042
vt 0.99853515625 0
vt 0.015627807006239891 0
vt 0.99853515625 0.015627807006239891
vt 0.015627807006239891 0.015627807006239891
vn 0 -1 0
vn 0 -1 0
vn 0 -1 0
vn 0 -1 0
vn 1 0 0
vn 1 0 0
vn 1 0 0
vn 1 0 0
vn 0 1 0
vn 0 1 0
vn 0 1 0
vn 0 1 0
vn -1 0 0
vn -1 0 0
vn -1 0 0
vn -1 0 0
f 114/114/114 113/113/113 115/115/115
f 118/118/118 117/117/117 119/119/119
f 122/122/122 121/121/121 123/123/123
f 126/126/126 125/125/125 127/127/127
f 114/114/114 115/115/115 116/116/116
f 118/118/118 119/119/119 120/120/120
f 122/122/122 123/123/123 124/124/124
f 126/126/126 127/127/127 128/128/128
usemtl diffuse_0
v 97.833335876464844 97.833335876464844 0
v 6.5 97.833335876464844 0
v 97.833335876464844 97.833335876464844 1.4500000476837158
v 6.5 97.833335876464844 1.4500000476837158
v 6.5 97.833335876464844 0
v 6.5 6.5 0
v 6.5 97.833335876464844 1.4500000476837158
v 6.5 6.5 1.4500000476837158
v 6.5 6.5 0
v 97.833335876464844 6.5 0
v 6.5 6.5 1.4500000476837158
v 97.833335876464844 6.5 1.4500000476837158
v 97.833335876464844 6.5 0
v 97.833335876464844 97.833335876464844 0
v 97.833335876464844 6.5 1.4500000476837158
v 97.833335876464844 97.833335876464844 1.4500000476837158
vt 0 0
vt 0 0.98290735483169556
vt 0.014162963256239891 0
vt 0.014162963256239891 0.98290735483169556
vt 0.99853515625 0.65624815225601196
vt 0.015627807006239891 0.65624815225601196
vt 0.99853515625 0.67187595367431641
vt 0.015627807006239891 0.67187595367431641
vt 0.99853515625 0.32812407612800598
vt 0.015627807006239891 0.32812407612800598
vt 0.99853515625 0.34375187754631042
vt 0.015627807006239891 0.34375187754631042
vt 0.99853515625 0
vt 0.015627807006239891 0
vt 0.99853515625 0.015627807006239891
vt 0.015627807006239891 0.015627807006239891
vn 0 -1 0
vn 0 -1 0
vn 0 -1 0
vn 0 -1 0
vn 1 0 0
vn 1 0 0
vn 1 0 0
vn 1 0 0
vn 0 1 0
vn 0 1 0
vn 0 1 0
vn 0 1 0
vn -1 0 0
vn -1 0 0
vn -1 0 0
vn -1 0 0
f 130/130/130 129/129/129 131/131/131
f 134/134/134 133/133/133 135/135/135
f 138/138/138 137/137/137 139/139/139
f 142/142/142 141/141/141 143/143/143
f 130/130/130 131/131/131 132/132/132
f 134/134/134 135/135/135 136/136/136
f 138/138/138 139/139/139 140/140/140
f 142/142/142 143/143/143 144/144/144
usemtl diffuse_0
v 3.25 296.75 0
v 3.25 3.25 0
v 3.25 296.75 5.9499998092651367
v 3.25 3.25 5.9499998092651367
v 3.25 3.25 0
v 296.75 3.25 0
v 3.25 3.25 5.9499998092651367
v 296.75 3.25 5.9499998092651367
v 296.75 3.25 0
v 296.75 296.75 0
v 296.75 3.25 5.9499998092651367
v 296.75 296.75 5.9499998092651367
v 296.75 296.75 0
v 3.25 296.75 0
v 296.75 296.75 5.9499998092651367
v 3.25 296.75 5.9499998092651367
vt 0.99853515625 0
vt 0.019869761541485786 0
vt 0.99853515625 0.019869761541485786
vt 0.019869761541485786 0.019869761541485786
vt 0 0
vt 0 0.97866541147232056
vt 0.018404917791485786 0
vt 0.018404917791485786 0.97866541147232056
vt 0.99853515625 0.65342015027999878
vt 0.019869761541485786 0.65342015027999878
vt 0.99853515625 0.67328989505767822
vt 0.019869761541485786 0.67328989505767822
vt 0.99853515625 0.32671007513999939
vt 0.019869761541485786 0.32671007513999939
vt 0.99853515625 0.34657984972000122
vt 0.019869761541485786 0.34657984972000122
vn 1 0 0
vn 1 0 0
vn 1 0 0
vn 1 0 0
vn 0 1 0
vn 0 1 0
vn 0 1 0
vn 0 1 0
vn -1 0 0
vn -1 0 0
vn -1 0 0
vn -1 0 0
vn 0 -1 0
vn 0 -1 0
vn 0 -1 0
vn 0 -1 0
f 146/146/146 145/145/145 147/147/147
f 150/150/150 149/149/149 151/151/151
f 154/154/154 153/153/153 155/155/155
f 158/158/158 157/157/157 159/159/159
f 146/146/146 147/147/147 148/148/148
f 150/150/150 151/151/151 152/152/152
f 154/154/154 155/155/155 156/156/156
f 158/158/158 159/159/159 160/160/160
usemtl diffuse_0
v -3.25 303.25 0
v -3.25 -3.25 0
v -3.25 303.25 5.9499998092651367
v -3.25 -3.25 5.9499998092651367
v -3.25 -3.25 0
v 303.25 -3.25 0
v -3.25 -3.25 5.9499998092651367
v 303.25 -3.25 5.9499998092651367
v 303.25 -3.25 0
v 303.25 303.25 0
v 303.25 -3.25 5.9499998092651367
v 303.25 303.25 5.9499998092651367
v 303.25 303.25 0
v -3.25 303.25 0
v 303.25 303.25 5.9499998092651367
v -3.25 303.25 5.9499998092651367
vt 0.99853515625 0
vt 0.019043046981096268 0
vt 0.99853515625 0.019043046981096268
vt 0.019043046981096268 0.019043046981096268
vt 0 0
vt 0 0.97949212789535522
vt 0.017578203231096268 0
vt 0.017578203231096268 0.97949212789535522
vt 0.99853515625 0.65397131443023682
vt 0.019043046981096268 0.65397131443023682
vt 0.99853515625 0.67301434278488159
vt 0.019043046981096268 0.67301434278488159
vt 0.99853515625 0.32698565721511841
vt 0.019043046981096268 0.32698565721511841
vt 0.99853515625 0.34602868556976318
vt 0.019043046981096268 0.34602868556976318
vn 1 0 0
vn 1 0 0
vn 1 0 0
vn 1 0 0
vn 0 1 0
vn 0 1 0
vn 0 1 0
vn 0 1 0
vn -1 0 0
vn -1 0 0
vn -1 0 0
vn -1 0 0
vn 0 -1 0
vn 0 -1 0
vn 0 -1 0
vn 0 -1 0
f 162/162/162 161/161/161 163/163/163
f 166/166/166 165/165/165 167/167/167
f 170/170/170 169/169/169 171/171/171
f 174/174/174 173/173/173 175/175/175
f 162/162/162 163/163/163 164/164/164
f 166/166/166 167/167/167 168/168/168
f 170/170/170 171/171/171 172/172/172
f 174/174/174 175/175/175 176/176/176
usemtl diffuse_0
v 0 300 0
v 0 0 0
v 0 300 5.9499998092651367
v 0 0 5.9499998092651367
v 0 0 0
v 300 0 0
v 0 0 5.9499998092651367
v 300 0 5.9499998092651367
v 300 0 0
v 300 300 0
v 300 0 5.9499998092651367
v 300 300 5.9499998092651367
v 300 300 0
v 0 300 0
v 300 300 5.9499998092651367
v 0 300 5.9499998092651367
vt 0.99853515625 0
vt 0.019447622820734978 0
vt 0.99853515625 0.019447622820734978
vt 0.019447622820734978 0.019447622820734978
vt 0 0
vt 0 0.97908753156661987
vt 0.017982779070734978 0
vt 0.017982779070734978 0.97908753156661987
vt 0.99853515625 0.65370160341262817
vt 0.019447622820734978 0.65370160341262817
vt 0.99853515625 0.6731492280960083
vt 0.019447622820734978 0.6731492280960083
vt 0.99853515625 0.32685080170631409
vt 0.019447622820734978 0.32685080170631409
vt 0.99853515625 0.34629842638969421
vt 0.019447622820734978 0.34629842638969421
vn 1 0 0
vn 1 0 0
vn 1 0 0
vn 1 0 0
vn 0 1 0
vn 0 1 0
vn 0 1 0
vn 0 1 0
vn -1 0 0
vn -1 0 0
vn -1 0 0
vn -1 0 0
vn 0 -1 0
vn 0 -1 0
vn 0 -1 0
vn 0 -1 0
f 178/178/178 177/177/177 179/179/179
f 182/182/182 181/181/181 183/183/183
f 186/186/186 185/185/185 187/187/187
f 190/190/190 189/189/189 191/191/191
f 178/178/178 179/179/179 180/180/180
f 182/182/182 183/183/183 184/184/184
f 186/186/186 187/187/187 188/188/188
f 190/190/190 191/191/191 192/192/192
